<svg xmlns="http://www.w3.org/2000/svg" viewBox="0 0 24 24" shape-rendering="crispEdges"><rect x="3" y="3" width="1" height="1" fill="#5b45a8"/><rect x="8" y="3" width="7" height="1" fill="#5b45a8"/><rect x="19" y="3" width="1" height="1" fill="#5b45a8"/><rect x="2" y="4" width="3" height="1" fill="#5b45a8"/><rect x="6" y="4" width="2" height="1" fill="#5b45a8"/><rect x="8" y="4" width="7" height="1" fill="#2b2235"/><rect x="15" y="4" width="2" height="1" fill="#5b45a8"/><rect x="18" y="4" width="3" height="1" fill="#5b45a8"/><rect x="2" y="5" width="4" height="1" fill="#5b45a8"/><rect x="6" y="5" width="2" height="1" fill="#2b2235"/><rect x="8" y="5" width="1" height="1" fill="#6f5a92"/><rect x="9" y="5" width="5" height="1" fill="#9a80c2"/><rect x="14" y="5" width="1" height="1" fill="#6f5a92"/><rect x="15" y="5" width="2" height="1" fill="#2b2235"/><rect x="17" y="5" width="4" height="1" fill="#5b45a8"/><rect x="2" y="6" width="2" height="1" fill="#5b45a8"/><rect x="4" y="6" width="2" height="1" fill="#6f5a92"/><rect x="6" y="6" width="1" height="1" fill="#9a80c2"/><rect x="7" y="6" width="9" height="1" fill="#b9a6f2"/><rect x="16" y="6" width="1" height="1" fill="#9a80c2"/><rect x="17" y="6" width="2" height="1" fill="#6f5a92"/><rect x="19" y="6" width="2" height="1" fill="#5b45a8"/><rect x="1" y="7" width="2" height="1" fill="#5b45a8"/><rect x="3" y="7" width="1" height="1" fill="#6f5a92"/><rect x="4" y="7" width="1" height="1" fill="#9a80c2"/><rect x="5" y="7" width="13" height="1" fill="#b9a6f2"/><rect x="18" y="7" width="1" height="1" fill="#9a80c2"/><rect x="19" y="7" width="1" height="1" fill="#6f5a92"/><rect x="20" y="7" width="2" height="1" fill="#5b45a8"/><rect x="1" y="8" width="1" height="1" fill="#5b45a8"/><rect x="2" y="8" width="1" height="1" fill="#6f5a92"/><rect x="3" y="8" width="5" height="1" fill="#b9a6f2"/><rect x="8" y="8" width="1" height="1" fill="#9a80c2"/><rect x="9" y="8" width="5" height="1" fill="#b9a6f2"/><rect x="14" y="8" width="1" height="1" fill="#9a80c2"/><rect x="15" y="8" width="5" height="1" fill="#b9a6f2"/><rect x="20" y="8" width="1" height="1" fill="#6f5a92"/><rect x="21" y="8" width="1" height="1" fill="#5b45a8"/><rect x="0" y="9" width="1" height="1" fill="#5b45a8"/><rect x="1" y="9" width="1" height="1" fill="#6f5a92"/><rect x="2" y="9" width="1" height="1" fill="#9a80c2"/><rect x="3" y="9" width="17" height="1" fill="#b9a6f2"/><rect x="20" y="9" width="1" height="1" fill="#9a80c2"/><rect x="21" y="9" width="1" height="1" fill="#6f5a92"/><rect x="22" y="9" width="1" height="1" fill="#5b45a8"/><rect x="0" y="10" width="1" height="1" fill="#5b45a8"/><rect x="1" y="10" width="1" height="1" fill="#6f5a92"/><rect x="2" y="10" width="1" height="1" fill="#9a80c2"/><rect x="3" y="10" width="3" height="1" fill="#b9a6f2"/><rect x="6" y="10" width="1" height="1" fill="#9a80c2"/><rect x="7" y="10" width="9" height="1" fill="#b9a6f2"/><rect x="16" y="10" width="1" height="1" fill="#9a80c2"/><rect x="17" y="10" width="3" height="1" fill="#b9a6f2"/><rect x="20" y="10" width="1" height="1" fill="#9a80c2"/><rect x="21" y="10" width="1" height="1" fill="#6f5a92"/><rect x="22" y="10" width="1" height="1" fill="#5b45a8"/><rect x="0" y="11" width="1" height="1" fill="#5b45a8"/><rect x="1" y="11" width="1" height="1" fill="#6f5a92"/><rect x="2" y="11" width="1" height="1" fill="#9a80c2"/><rect x="3" y="11" width="3" height="1" fill="#b9a6f2"/><rect x="6" y="11" width="1" height="1" fill="#9a80c2"/><rect x="7" y="11" width="3" height="1" fill="#b9a6f2"/><rect x="10" y="11" width="1" height="1" fill="#9a80c2"/><rect x="11" y="11" width="1" height="1" fill="#b9a6f2"/><rect x="12" y="11" width="1" height="1" fill="#9a80c2"/><rect x="13" y="11" width="3" height="1" fill="#b9a6f2"/><rect x="16" y="11" width="1" height="1" fill="#9a80c2"/><rect x="17" y="11" width="3" height="1" fill="#b9a6f2"/><rect x="20" y="11" width="1" height="1" fill="#9a80c2"/><rect x="21" y="11" width="1" height="1" fill="#6f5a92"/><rect x="22" y="11" width="1" height="1" fill="#5b45a8"/><rect x="0" y="12" width="1" height="1" fill="#5b45a8"/><rect x="1" y="12" width="1" height="1" fill="#6f5a92"/><rect x="2" y="12" width="2" height="1" fill="#9a80c2"/><rect x="4" y="12" width="2" height="1" fill="#b9a6f2"/><rect x="6" y="12" width="1" height="1" fill="#d58ae6"/><rect x="7" y="12" width="3" height="1" fill="#b9a6f2"/><rect x="10" y="12" width="1" height="1" fill="#d58ae6"/><rect x="11" y="12" width="1" height="1" fill="#b9a6f2"/><rect x="12" y="12" width="1" height="1" fill="#d58ae6"/><rect x="13" y="12" width="3" height="1" fill="#b9a6f2"/><rect x="16" y="12" width="1" height="1" fill="#d58ae6"/><rect x="17" y="12" width="2" height="1" fill="#b9a6f2"/><rect x="19" y="12" width="2" height="1" fill="#9a80c2"/><rect x="21" y="12" width="1" height="1" fill="#6f5a92"/><rect x="22" y="12" width="1" height="1" fill="#5b45a8"/><rect x="0" y="13" width="1" height="1" fill="#5b45a8"/><rect x="1" y="13" width="1" height="1" fill="#2b2235"/><rect x="2" y="13" width="1" height="1" fill="#b9a6f2"/><rect x="3" y="13" width="1" height="1" fill="#9a80c2"/><rect x="4" y="13" width="1" height="1" fill="#d58ae6"/><rect x="5" y="13" width="2" height="1" fill="#f9cdeb"/><rect x="7" y="13" width="1" height="1" fill="#d58ae6"/><rect x="8" y="13" width="2" height="1" fill="#f9cdeb"/><rect x="10" y="13" width="1" height="1" fill="#d58ae6"/><rect x="11" y="13" width="1" height="1" fill="#f9cdeb"/><rect x="12" y="13" width="1" height="1" fill="#d58ae6"/><rect x="13" y="13" width="2" height="1" fill="#f9cdeb"/><rect x="15" y="13" width="1" height="1" fill="#d58ae6"/><rect x="16" y="13" width="2" height="1" fill="#f9cdeb"/><rect x="18" y="13" width="1" height="1" fill="#d58ae6"/><rect x="19" y="13" width="1" height="1" fill="#9a80c2"/><rect x="20" y="13" width="1" height="1" fill="#b9a6f2"/><rect x="21" y="13" width="1" height="1" fill="#2b2235"/><rect x="22" y="13" width="1" height="1" fill="#5b45a8"/><rect x="0" y="14" width="1" height="1" fill="#5b45a8"/><rect x="1" y="14" width="1" height="1" fill="#2b2235"/><rect x="2" y="14" width="1" height="1" fill="#9a80c2"/><rect x="3" y="14" width="1" height="1" fill="#b9a6f2"/><rect x="4" y="14" width="1" height="1" fill="#d58ae6"/><rect x="5" y="14" width="1" height="1" fill="#f9cdeb"/><rect x="6" y="14" width="2" height="1" fill="#2b2235"/><rect x="8" y="14" width="7" height="1" fill="#f9cdeb"/><rect x="15" y="14" width="2" height="1" fill="#2b2235"/><rect x="17" y="14" width="1" height="1" fill="#f9cdeb"/><rect x="18" y="14" width="1" height="1" fill="#d58ae6"/><rect x="19" y="14" width="1" height="1" fill="#b9a6f2"/><rect x="20" y="14" width="1" height="1" fill="#9a80c2"/><rect x="21" y="14" width="1" height="1" fill="#2b2235"/><rect x="22" y="14" width="1" height="1" fill="#5b45a8"/><rect x="0" y="15" width="1" height="1" fill="#5b45a8"/><rect x="1" y="15" width="1" height="1" fill="#2b2235"/><rect x="2" y="15" width="1" height="1" fill="#d58ae6"/><rect x="3" y="15" width="1" height="1" fill="#9a80c2"/><rect x="4" y="15" width="1" height="1" fill="#d58ae6"/><rect x="5" y="15" width="1" height="1" fill="#f9cdeb"/><rect x="6" y="15" width="2" height="1" fill="#2b2235"/><rect x="8" y="15" width="7" height="1" fill="#f9cdeb"/><rect x="15" y="15" width="2" height="1" fill="#2b2235"/><rect x="17" y="15" width="1" height="1" fill="#f9cdeb"/><rect x="18" y="15" width="1" height="1" fill="#d58ae6"/><rect x="19" y="15" width="1" height="1" fill="#9a80c2"/><rect x="20" y="15" width="1" height="1" fill="#d58ae6"/><rect x="21" y="15" width="1" height="1" fill="#2b2235"/><rect x="22" y="15" width="1" height="1" fill="#5b45a8"/><rect x="0" y="16" width="1" height="1" fill="#5b45a8"/><rect x="1" y="16" width="1" height="1" fill="#2b2235"/><rect x="2" y="16" width="2" height="1" fill="#d58ae6"/><rect x="4" y="16" width="1" height="1" fill="#9a80c2"/><rect x="5" y="16" width="1" height="1" fill="#f9cdeb"/><rect x="6" y="16" width="1" height="1" fill="#2b2235"/><rect x="7" y="16" width="1" height="1" fill="#e05fc6"/><rect x="8" y="16" width="7" height="1" fill="#f9cdeb"/><rect x="15" y="16" width="1" height="1" fill="#e05fc6"/><rect x="16" y="16" width="1" height="1" fill="#2b2235"/><rect x="17" y="16" width="1" height="1" fill="#f9cdeb"/><rect x="18" y="16" width="1" height="1" fill="#9a80c2"/><rect x="19" y="16" width="2" height="1" fill="#d58ae6"/><rect x="21" y="16" width="1" height="1" fill="#2b2235"/><rect x="22" y="16" width="1" height="1" fill="#5b45a8"/><rect x="1" y="17" width="1" height="1" fill="#5b45a8"/><rect x="2" y="17" width="1" height="1" fill="#2b2235"/><rect x="3" y="17" width="1" height="1" fill="#d58ae6"/><rect x="4" y="17" width="1" height="1" fill="#9a80c2"/><rect x="5" y="17" width="1" height="1" fill="#f9cdeb"/><rect x="6" y="17" width="1" height="1" fill="#f2a8f0"/><rect x="7" y="17" width="4" height="1" fill="#f9cdeb"/><rect x="11" y="17" width="1" height="1" fill="#d58ae6"/><rect x="12" y="17" width="4" height="1" fill="#f9cdeb"/><rect x="16" y="17" width="1" height="1" fill="#f2a8f0"/><rect x="17" y="17" width="1" height="1" fill="#f9cdeb"/><rect x="18" y="17" width="1" height="1" fill="#9a80c2"/><rect x="19" y="17" width="1" height="1" fill="#d58ae6"/><rect x="20" y="17" width="1" height="1" fill="#2b2235"/><rect x="21" y="17" width="1" height="1" fill="#5b45a8"/><rect x="2" y="18" width="1" height="1" fill="#5b45a8"/><rect x="3" y="18" width="1" height="1" fill="#2b2235"/><rect x="4" y="18" width="1" height="1" fill="#d58ae6"/><rect x="5" y="18" width="1" height="1" fill="#2b2235"/><rect x="6" y="18" width="11" height="1" fill="#f9cdeb"/><rect x="17" y="18" width="1" height="1" fill="#2b2235"/><rect x="18" y="18" width="1" height="1" fill="#d58ae6"/><rect x="19" y="18" width="1" height="1" fill="#2b2235"/><rect x="20" y="18" width="1" height="1" fill="#5b45a8"/><rect x="1" y="19" width="1" height="1" fill="#5b45a8"/><rect x="2" y="19" width="1" height="1" fill="#2b2235"/><rect x="3" y="19" width="1" height="1" fill="#d58ae6"/><rect x="4" y="19" width="1" height="1" fill="#9a80c2"/><rect x="5" y="19" width="5" height="1" fill="#2b2235"/><rect x="10" y="19" width="3" height="1" fill="#6f5a92"/><rect x="13" y="19" width="5" height="1" fill="#2b2235"/><rect x="18" y="19" width="1" height="1" fill="#9a80c2"/><rect x="19" y="19" width="1" height="1" fill="#d58ae6"/><rect x="20" y="19" width="1" height="1" fill="#2b2235"/><rect x="21" y="19" width="1" height="1" fill="#5b45a8"/><rect x="1" y="20" width="21" height="1" fill="#5b45a8"/></svg>
